# xmcd CD database file
#
# Track frame offsets:
#	150
#	12977
#	27402
#	37217
#	49697
#	64892
#	78225
#	87857
#	104900
#	116732
#	133317
#	150390
#	163392
#	173325
#
# Disc length: 2504 seconds
#
# Revision: 0
# Processed by: cddbd v1.4PL0 Copyright (c) Steve Scherf et al.
# Submitted via: CDex 1.50beta9
#
DISCID=bd09c60e
DTITLE=SEAN WILSON &SALLY O'BRIEN - WE GO TOGETHER
DYEAR=1900
DGENRE=Country
TTITLE0=We Go Together
TTITLE1=Part Of Me
TTITLE2=A House where Love Is
TTITLE3=Say Forever You'll Be Mine
TTITLE4=Til The Tear Becomes A Rose
TTITLE5=Washed My Face In The Morning Dew
TTITLE6=I'm Wasting Your Time And Your Wasting Mine
TTITLE7=Together Again
TTITLE8=Have I Told You Lately That I Love You
TTITLE9=I Will Love You All My Life
TTITLE10=Rose Of My Heart
TTITLE11=More Than Words Can Ever Tell
TTITLE12=Just Someone I Used To Know
TTITLE13=There's Going To Be A Shindig In The Barn
EXTD=
EXTT0=
EXTT1=
EXTT2=
EXTT3=
EXTT4=
EXTT5=
EXTT6=
EXTT7=
EXTT8=
EXTT9=
EXTT10=
EXTT11=
EXTT12=
EXTT13=
PLAYORDER=
